<mxfile host="app.diagrams.net" modified="2021-05-27T12:43:53.433Z" agent="5.0 (Windows NT 10.0; Win64; x64) AppleWebKit/537.36 (KHTML, like Gecko) Chrome/90.0.4430.212 Safari/537.36" etag="oEIzqv7lGWsuUnvQKr3U" version="14.7.2" type="github">
  <diagram id="hwC4SEaQMCPyBl5hRSAV" name="Page-1">
    <mxGraphModel dx="1483" dy="783" grid="1" gridSize="10" guides="1" tooltips="1" connect="1" arrows="1" fold="1" page="1" pageScale="1" pageWidth="827" pageHeight="1169" math="0" shadow="0">
      <root>
        <mxCell id="0" />
        <mxCell id="1" parent="0" />
        <mxCell id="O2SbVEeWKp02B8JiuFix-11" style="edgeStyle=orthogonalEdgeStyle;rounded=0;orthogonalLoop=1;jettySize=auto;html=1;exitX=0.5;exitY=1;exitDx=0;exitDy=0;entryX=0.5;entryY=0;entryDx=0;entryDy=0;" edge="1" parent="1" source="O2SbVEeWKp02B8JiuFix-1" target="O2SbVEeWKp02B8JiuFix-3">
          <mxGeometry relative="1" as="geometry" />
        </mxCell>
        <mxCell id="O2SbVEeWKp02B8JiuFix-1" value="Начало" style="rounded=1;whiteSpace=wrap;html=1;" vertex="1" parent="1">
          <mxGeometry x="354" y="20" width="126" height="30" as="geometry" />
        </mxCell>
        <mxCell id="O2SbVEeWKp02B8JiuFix-2" value="Выход" style="rounded=1;whiteSpace=wrap;html=1;" vertex="1" parent="1">
          <mxGeometry x="350" y="1130" width="126" height="30" as="geometry" />
        </mxCell>
        <mxCell id="O2SbVEeWKp02B8JiuFix-12" style="edgeStyle=orthogonalEdgeStyle;rounded=0;orthogonalLoop=1;jettySize=auto;html=1;exitX=0.5;exitY=1;exitDx=0;exitDy=0;" edge="1" parent="1" source="O2SbVEeWKp02B8JiuFix-3">
          <mxGeometry relative="1" as="geometry">
            <mxPoint x="417" y="180" as="targetPoint" />
          </mxGeometry>
        </mxCell>
        <mxCell id="O2SbVEeWKp02B8JiuFix-3" value="Заполнение массивов исходными данными" style="rounded=0;whiteSpace=wrap;html=1;" vertex="1" parent="1">
          <mxGeometry x="354" y="80" width="126" height="60" as="geometry" />
        </mxCell>
        <mxCell id="O2SbVEeWKp02B8JiuFix-4" value="" style="endArrow=none;html=1;" edge="1" parent="1">
          <mxGeometry width="50" height="50" relative="1" as="geometry">
            <mxPoint x="390" y="180" as="sourcePoint" />
            <mxPoint x="450" y="180" as="targetPoint" />
          </mxGeometry>
        </mxCell>
        <mxCell id="O2SbVEeWKp02B8JiuFix-5" value="" style="endArrow=none;html=1;" edge="1" parent="1">
          <mxGeometry width="50" height="50" relative="1" as="geometry">
            <mxPoint x="390" y="180" as="sourcePoint" />
            <mxPoint x="320" y="220" as="targetPoint" />
          </mxGeometry>
        </mxCell>
        <mxCell id="O2SbVEeWKp02B8JiuFix-6" value="" style="endArrow=none;html=1;" edge="1" parent="1">
          <mxGeometry width="50" height="50" relative="1" as="geometry">
            <mxPoint x="450" y="180" as="sourcePoint" />
            <mxPoint x="520" y="220" as="targetPoint" />
          </mxGeometry>
        </mxCell>
        <mxCell id="O2SbVEeWKp02B8JiuFix-7" value="" style="endArrow=none;html=1;" edge="1" parent="1">
          <mxGeometry width="50" height="50" relative="1" as="geometry">
            <mxPoint x="320" y="220" as="sourcePoint" />
            <mxPoint x="390" y="270" as="targetPoint" />
          </mxGeometry>
        </mxCell>
        <mxCell id="O2SbVEeWKp02B8JiuFix-8" value="" style="endArrow=none;html=1;" edge="1" parent="1">
          <mxGeometry width="50" height="50" relative="1" as="geometry">
            <mxPoint x="390" y="270" as="sourcePoint" />
            <mxPoint x="450" y="270" as="targetPoint" />
          </mxGeometry>
        </mxCell>
        <mxCell id="O2SbVEeWKp02B8JiuFix-9" value="" style="endArrow=none;html=1;" edge="1" parent="1">
          <mxGeometry width="50" height="50" relative="1" as="geometry">
            <mxPoint x="450" y="270" as="sourcePoint" />
            <mxPoint x="520" y="220" as="targetPoint" />
          </mxGeometry>
        </mxCell>
        <mxCell id="O2SbVEeWKp02B8JiuFix-10" value="Повторяем 24 раза, для каждого часа в сутках" style="text;html=1;strokeColor=none;fillColor=none;align=center;verticalAlign=middle;whiteSpace=wrap;rounded=0;" vertex="1" parent="1">
          <mxGeometry x="350" y="210" width="140" height="20" as="geometry" />
        </mxCell>
        <mxCell id="O2SbVEeWKp02B8JiuFix-13" value="" style="endArrow=classic;html=1;" edge="1" parent="1">
          <mxGeometry width="50" height="50" relative="1" as="geometry">
            <mxPoint x="420" y="270" as="sourcePoint" />
            <mxPoint x="420" y="300" as="targetPoint" />
          </mxGeometry>
        </mxCell>
        <mxCell id="O2SbVEeWKp02B8JiuFix-14" value="" style="endArrow=none;html=1;" edge="1" parent="1">
          <mxGeometry width="50" height="50" relative="1" as="geometry">
            <mxPoint x="520" y="220" as="sourcePoint" />
            <mxPoint x="800" y="220" as="targetPoint" />
          </mxGeometry>
        </mxCell>
        <mxCell id="O2SbVEeWKp02B8JiuFix-16" value="" style="endArrow=none;html=1;" edge="1" parent="1">
          <mxGeometry width="50" height="50" relative="1" as="geometry">
            <mxPoint x="413" y="1080" as="sourcePoint" />
            <mxPoint x="800" y="1080" as="targetPoint" />
          </mxGeometry>
        </mxCell>
        <mxCell id="O2SbVEeWKp02B8JiuFix-17" value="" style="endArrow=classic;html=1;" edge="1" parent="1" target="O2SbVEeWKp02B8JiuFix-2">
          <mxGeometry width="50" height="50" relative="1" as="geometry">
            <mxPoint x="413" y="1080" as="sourcePoint" />
            <mxPoint x="470" y="670" as="targetPoint" />
          </mxGeometry>
        </mxCell>
        <mxCell id="O2SbVEeWKp02B8JiuFix-25" style="edgeStyle=orthogonalEdgeStyle;rounded=0;orthogonalLoop=1;jettySize=auto;html=1;exitX=0.5;exitY=1;exitDx=0;exitDy=0;entryX=0.5;entryY=0;entryDx=0;entryDy=0;" edge="1" parent="1" source="O2SbVEeWKp02B8JiuFix-21" target="O2SbVEeWKp02B8JiuFix-22">
          <mxGeometry relative="1" as="geometry" />
        </mxCell>
        <mxCell id="O2SbVEeWKp02B8JiuFix-21" value="&lt;span&gt;Находим разность между двумя соседними точками&lt;br&gt;raz&lt;br&gt;&lt;/span&gt;" style="shape=process;whiteSpace=wrap;html=1;backgroundOutline=1;" vertex="1" parent="1">
          <mxGeometry x="310" y="300" width="220" height="50" as="geometry" />
        </mxCell>
        <mxCell id="O2SbVEeWKp02B8JiuFix-26" style="edgeStyle=orthogonalEdgeStyle;rounded=0;orthogonalLoop=1;jettySize=auto;html=1;exitX=0.5;exitY=1;exitDx=0;exitDy=0;" edge="1" parent="1" source="O2SbVEeWKp02B8JiuFix-22" target="O2SbVEeWKp02B8JiuFix-24">
          <mxGeometry relative="1" as="geometry" />
        </mxCell>
        <mxCell id="O2SbVEeWKp02B8JiuFix-22" value="Находим шаг дискретизации&lt;br&gt;delt" style="shape=process;whiteSpace=wrap;html=1;backgroundOutline=1;" vertex="1" parent="1">
          <mxGeometry x="310" y="390" width="220" height="40" as="geometry" />
        </mxCell>
        <mxCell id="O2SbVEeWKp02B8JiuFix-37" style="edgeStyle=orthogonalEdgeStyle;rounded=0;orthogonalLoop=1;jettySize=auto;html=1;exitX=0.5;exitY=1;exitDx=0;exitDy=0;entryX=0.5;entryY=0;entryDx=0;entryDy=0;" edge="1" parent="1" source="O2SbVEeWKp02B8JiuFix-23" target="O2SbVEeWKp02B8JiuFix-28">
          <mxGeometry relative="1" as="geometry" />
        </mxCell>
        <mxCell id="O2SbVEeWKp02B8JiuFix-23" value="Сравниваем разность с нулем" style="shape=process;whiteSpace=wrap;html=1;backgroundOutline=1;" vertex="1" parent="1">
          <mxGeometry x="310" y="555" width="220" height="35" as="geometry" />
        </mxCell>
        <mxCell id="O2SbVEeWKp02B8JiuFix-27" style="edgeStyle=orthogonalEdgeStyle;rounded=0;orthogonalLoop=1;jettySize=auto;html=1;exitX=0.5;exitY=1;exitDx=0;exitDy=0;entryX=0.5;entryY=0;entryDx=0;entryDy=0;" edge="1" parent="1" source="O2SbVEeWKp02B8JiuFix-24" target="O2SbVEeWKp02B8JiuFix-23">
          <mxGeometry relative="1" as="geometry" />
        </mxCell>
        <mxCell id="O2SbVEeWKp02B8JiuFix-24" value="Запоминаем начало промежутка в переменную&lt;br&gt;nach" style="rounded=0;whiteSpace=wrap;html=1;" vertex="1" parent="1">
          <mxGeometry x="310" y="470" width="220" height="50" as="geometry" />
        </mxCell>
        <mxCell id="O2SbVEeWKp02B8JiuFix-28" value="Разность больше или равна нулю?" style="rhombus;whiteSpace=wrap;html=1;" vertex="1" parent="1">
          <mxGeometry x="305" y="610" width="230" height="80" as="geometry" />
        </mxCell>
        <mxCell id="O2SbVEeWKp02B8JiuFix-66" style="edgeStyle=orthogonalEdgeStyle;rounded=0;orthogonalLoop=1;jettySize=auto;html=1;exitX=0.5;exitY=1;exitDx=0;exitDy=0;entryX=0.5;entryY=0;entryDx=0;entryDy=0;" edge="1" parent="1" source="O2SbVEeWKp02B8JiuFix-29" target="O2SbVEeWKp02B8JiuFix-65">
          <mxGeometry relative="1" as="geometry" />
        </mxCell>
        <mxCell id="O2SbVEeWKp02B8JiuFix-29" value="&lt;span&gt;Прибавляем шаг&lt;/span&gt;&lt;br&gt;&lt;span&gt;nach + delt&lt;/span&gt;" style="shape=process;whiteSpace=wrap;html=1;backgroundOutline=1;" vertex="1" parent="1">
          <mxGeometry x="165" y="810" width="170" height="50" as="geometry" />
        </mxCell>
        <mxCell id="O2SbVEeWKp02B8JiuFix-72" style="edgeStyle=orthogonalEdgeStyle;rounded=0;orthogonalLoop=1;jettySize=auto;html=1;exitX=0.5;exitY=1;exitDx=0;exitDy=0;entryX=0.5;entryY=0;entryDx=0;entryDy=0;" edge="1" parent="1" source="O2SbVEeWKp02B8JiuFix-30" target="O2SbVEeWKp02B8JiuFix-70">
          <mxGeometry relative="1" as="geometry" />
        </mxCell>
        <mxCell id="O2SbVEeWKp02B8JiuFix-30" value="Вычитаем шаг&lt;br&gt;nach - delt" style="shape=process;whiteSpace=wrap;html=1;backgroundOutline=1;" vertex="1" parent="1">
          <mxGeometry x="500" y="810" width="170" height="50" as="geometry" />
        </mxCell>
        <mxCell id="O2SbVEeWKp02B8JiuFix-31" value="" style="endArrow=none;html=1;" edge="1" parent="1">
          <mxGeometry width="50" height="50" relative="1" as="geometry">
            <mxPoint x="535" y="650" as="sourcePoint" />
            <mxPoint x="600" y="650" as="targetPoint" />
          </mxGeometry>
        </mxCell>
        <mxCell id="O2SbVEeWKp02B8JiuFix-32" value="" style="endArrow=none;html=1;" edge="1" parent="1">
          <mxGeometry width="50" height="50" relative="1" as="geometry">
            <mxPoint x="245" y="649.41" as="sourcePoint" />
            <mxPoint x="305" y="649.41" as="targetPoint" />
          </mxGeometry>
        </mxCell>
        <mxCell id="O2SbVEeWKp02B8JiuFix-33" value="" style="endArrow=classic;html=1;" edge="1" parent="1">
          <mxGeometry width="50" height="50" relative="1" as="geometry">
            <mxPoint x="599.41" y="650" as="sourcePoint" />
            <mxPoint x="599.41" y="690" as="targetPoint" />
            <Array as="points">
              <mxPoint x="599.75" y="670" />
            </Array>
          </mxGeometry>
        </mxCell>
        <mxCell id="O2SbVEeWKp02B8JiuFix-34" value="" style="endArrow=classic;html=1;entryX=0.5;entryY=0;entryDx=0;entryDy=0;" edge="1" parent="1">
          <mxGeometry width="50" height="50" relative="1" as="geometry">
            <mxPoint x="245" y="650" as="sourcePoint" />
            <mxPoint x="245" y="690" as="targetPoint" />
          </mxGeometry>
        </mxCell>
        <mxCell id="O2SbVEeWKp02B8JiuFix-35" value="Нет" style="text;html=1;strokeColor=none;fillColor=none;align=center;verticalAlign=middle;whiteSpace=wrap;rounded=0;" vertex="1" parent="1">
          <mxGeometry x="525" y="630" width="40" height="20" as="geometry" />
        </mxCell>
        <mxCell id="O2SbVEeWKp02B8JiuFix-36" value="Да" style="text;html=1;strokeColor=none;fillColor=none;align=center;verticalAlign=middle;whiteSpace=wrap;rounded=0;" vertex="1" parent="1">
          <mxGeometry x="275" y="630" width="40" height="20" as="geometry" />
        </mxCell>
        <mxCell id="O2SbVEeWKp02B8JiuFix-40" value="" style="endArrow=none;html=1;exitX=0.5;exitY=1;exitDx=0;exitDy=0;" edge="1" parent="1">
          <mxGeometry width="50" height="50" relative="1" as="geometry">
            <mxPoint x="730.0000000000001" y="730" as="sourcePoint" />
            <mxPoint x="730" y="960" as="targetPoint" />
          </mxGeometry>
        </mxCell>
        <mxCell id="O2SbVEeWKp02B8JiuFix-41" value="" style="endArrow=classic;html=1;" edge="1" parent="1">
          <mxGeometry width="50" height="50" relative="1" as="geometry">
            <mxPoint x="350" y="729.66" as="sourcePoint" />
            <mxPoint x="430" y="729.66" as="targetPoint" />
          </mxGeometry>
        </mxCell>
        <mxCell id="O2SbVEeWKp02B8JiuFix-42" value="" style="endArrow=classic;html=1;" edge="1" parent="1">
          <mxGeometry width="50" height="50" relative="1" as="geometry">
            <mxPoint x="500" y="730" as="sourcePoint" />
            <mxPoint x="430" y="730" as="targetPoint" />
          </mxGeometry>
        </mxCell>
        <mxCell id="O2SbVEeWKp02B8JiuFix-44" value="" style="endArrow=classic;html=1;" edge="1" parent="1">
          <mxGeometry width="50" height="50" relative="1" as="geometry">
            <mxPoint x="730" y="730" as="sourcePoint" />
            <mxPoint x="700" y="730" as="targetPoint" />
          </mxGeometry>
        </mxCell>
        <mxCell id="O2SbVEeWKp02B8JiuFix-45" value="" style="endArrow=classic;html=1;" edge="1" parent="1">
          <mxGeometry width="50" height="50" relative="1" as="geometry">
            <mxPoint x="80" y="220" as="sourcePoint" />
            <mxPoint x="320" y="220" as="targetPoint" />
            <Array as="points" />
          </mxGeometry>
        </mxCell>
        <mxCell id="O2SbVEeWKp02B8JiuFix-46" value="" style="endArrow=none;html=1;exitX=0.5;exitY=1;exitDx=0;exitDy=0;" edge="1" parent="1">
          <mxGeometry width="50" height="50" relative="1" as="geometry">
            <mxPoint x="590" y="930" as="sourcePoint" />
            <mxPoint x="590" y="960" as="targetPoint" />
          </mxGeometry>
        </mxCell>
        <mxCell id="O2SbVEeWKp02B8JiuFix-47" value="" style="endArrow=none;html=1;" edge="1" parent="1">
          <mxGeometry width="50" height="50" relative="1" as="geometry">
            <mxPoint x="730" y="960" as="sourcePoint" />
            <mxPoint x="590" y="960" as="targetPoint" />
          </mxGeometry>
        </mxCell>
        <mxCell id="O2SbVEeWKp02B8JiuFix-48" value="" style="endArrow=none;html=1;" edge="1" parent="1">
          <mxGeometry width="50" height="50" relative="1" as="geometry">
            <mxPoint x="80" y="1040" as="sourcePoint" />
            <mxPoint x="80" y="220" as="targetPoint" />
          </mxGeometry>
        </mxCell>
        <mxCell id="O2SbVEeWKp02B8JiuFix-49" value="" style="endArrow=none;html=1;" edge="1" parent="1">
          <mxGeometry width="50" height="50" relative="1" as="geometry">
            <mxPoint x="220" y="690" as="sourcePoint" />
            <mxPoint x="280" y="690" as="targetPoint" />
          </mxGeometry>
        </mxCell>
        <mxCell id="O2SbVEeWKp02B8JiuFix-50" value="" style="endArrow=none;html=1;" edge="1" parent="1">
          <mxGeometry width="50" height="50" relative="1" as="geometry">
            <mxPoint x="220" y="690" as="sourcePoint" />
            <mxPoint x="150" y="730" as="targetPoint" />
          </mxGeometry>
        </mxCell>
        <mxCell id="O2SbVEeWKp02B8JiuFix-51" value="" style="endArrow=none;html=1;" edge="1" parent="1">
          <mxGeometry width="50" height="50" relative="1" as="geometry">
            <mxPoint x="280" y="690" as="sourcePoint" />
            <mxPoint x="350" y="730" as="targetPoint" />
          </mxGeometry>
        </mxCell>
        <mxCell id="O2SbVEeWKp02B8JiuFix-52" value="" style="endArrow=none;html=1;" edge="1" parent="1">
          <mxGeometry width="50" height="50" relative="1" as="geometry">
            <mxPoint x="150" y="730" as="sourcePoint" />
            <mxPoint x="220" y="780" as="targetPoint" />
          </mxGeometry>
        </mxCell>
        <mxCell id="O2SbVEeWKp02B8JiuFix-53" value="" style="endArrow=none;html=1;" edge="1" parent="1">
          <mxGeometry width="50" height="50" relative="1" as="geometry">
            <mxPoint x="220" y="780" as="sourcePoint" />
            <mxPoint x="280" y="780" as="targetPoint" />
          </mxGeometry>
        </mxCell>
        <mxCell id="O2SbVEeWKp02B8JiuFix-54" value="" style="endArrow=none;html=1;" edge="1" parent="1">
          <mxGeometry width="50" height="50" relative="1" as="geometry">
            <mxPoint x="280" y="780" as="sourcePoint" />
            <mxPoint x="350" y="730" as="targetPoint" />
          </mxGeometry>
        </mxCell>
        <mxCell id="O2SbVEeWKp02B8JiuFix-55" value="Повторяем в зависимости от количества дней в месяце" style="text;html=1;strokeColor=none;fillColor=none;align=center;verticalAlign=middle;whiteSpace=wrap;rounded=0;" vertex="1" parent="1">
          <mxGeometry x="180" y="720" width="140" height="20" as="geometry" />
        </mxCell>
        <mxCell id="O2SbVEeWKp02B8JiuFix-56" value="" style="endArrow=none;html=1;" edge="1" parent="1">
          <mxGeometry width="50" height="50" relative="1" as="geometry">
            <mxPoint x="570" y="690" as="sourcePoint" />
            <mxPoint x="630" y="690" as="targetPoint" />
          </mxGeometry>
        </mxCell>
        <mxCell id="O2SbVEeWKp02B8JiuFix-57" value="" style="endArrow=none;html=1;" edge="1" parent="1">
          <mxGeometry width="50" height="50" relative="1" as="geometry">
            <mxPoint x="570" y="690" as="sourcePoint" />
            <mxPoint x="500" y="730" as="targetPoint" />
          </mxGeometry>
        </mxCell>
        <mxCell id="O2SbVEeWKp02B8JiuFix-58" value="" style="endArrow=none;html=1;" edge="1" parent="1">
          <mxGeometry width="50" height="50" relative="1" as="geometry">
            <mxPoint x="630" y="690" as="sourcePoint" />
            <mxPoint x="700" y="730" as="targetPoint" />
          </mxGeometry>
        </mxCell>
        <mxCell id="O2SbVEeWKp02B8JiuFix-59" value="" style="endArrow=none;html=1;" edge="1" parent="1">
          <mxGeometry width="50" height="50" relative="1" as="geometry">
            <mxPoint x="500" y="730" as="sourcePoint" />
            <mxPoint x="570" y="780" as="targetPoint" />
          </mxGeometry>
        </mxCell>
        <mxCell id="O2SbVEeWKp02B8JiuFix-60" value="" style="endArrow=none;html=1;" edge="1" parent="1">
          <mxGeometry width="50" height="50" relative="1" as="geometry">
            <mxPoint x="570" y="780" as="sourcePoint" />
            <mxPoint x="630" y="780" as="targetPoint" />
          </mxGeometry>
        </mxCell>
        <mxCell id="O2SbVEeWKp02B8JiuFix-61" value="" style="endArrow=none;html=1;" edge="1" parent="1">
          <mxGeometry width="50" height="50" relative="1" as="geometry">
            <mxPoint x="630" y="780" as="sourcePoint" />
            <mxPoint x="700" y="730" as="targetPoint" />
          </mxGeometry>
        </mxCell>
        <mxCell id="O2SbVEeWKp02B8JiuFix-62" value="Повторяем в зависимости от количества дней в месяце" style="text;html=1;strokeColor=none;fillColor=none;align=center;verticalAlign=middle;whiteSpace=wrap;rounded=0;" vertex="1" parent="1">
          <mxGeometry x="530" y="720" width="140" height="20" as="geometry" />
        </mxCell>
        <mxCell id="O2SbVEeWKp02B8JiuFix-63" value="" style="endArrow=classic;html=1;" edge="1" parent="1">
          <mxGeometry width="50" height="50" relative="1" as="geometry">
            <mxPoint x="120" y="730" as="sourcePoint" />
            <mxPoint x="150" y="730" as="targetPoint" />
          </mxGeometry>
        </mxCell>
        <mxCell id="O2SbVEeWKp02B8JiuFix-64" value="" style="endArrow=classic;html=1;" edge="1" parent="1">
          <mxGeometry width="50" height="50" relative="1" as="geometry">
            <mxPoint x="250" y="780" as="sourcePoint" />
            <mxPoint x="250" y="810" as="targetPoint" />
          </mxGeometry>
        </mxCell>
        <mxCell id="O2SbVEeWKp02B8JiuFix-65" value="Записываем результат в массив" style="rounded=0;whiteSpace=wrap;html=1;" vertex="1" parent="1">
          <mxGeometry x="165" y="890" width="170" height="40" as="geometry" />
        </mxCell>
        <mxCell id="O2SbVEeWKp02B8JiuFix-67" value="" style="endArrow=none;html=1;" edge="1" parent="1">
          <mxGeometry width="50" height="50" relative="1" as="geometry">
            <mxPoint x="120" y="970" as="sourcePoint" />
            <mxPoint x="250" y="970" as="targetPoint" />
          </mxGeometry>
        </mxCell>
        <mxCell id="O2SbVEeWKp02B8JiuFix-68" value="" style="endArrow=none;html=1;" edge="1" parent="1">
          <mxGeometry width="50" height="50" relative="1" as="geometry">
            <mxPoint x="120" y="970" as="sourcePoint" />
            <mxPoint x="120" y="730" as="targetPoint" />
          </mxGeometry>
        </mxCell>
        <mxCell id="O2SbVEeWKp02B8JiuFix-69" value="" style="endArrow=none;html=1;exitX=0.5;exitY=1;exitDx=0;exitDy=0;" edge="1" parent="1" source="O2SbVEeWKp02B8JiuFix-65">
          <mxGeometry width="50" height="50" relative="1" as="geometry">
            <mxPoint x="280" y="920" as="sourcePoint" />
            <mxPoint x="250" y="970" as="targetPoint" />
          </mxGeometry>
        </mxCell>
        <mxCell id="O2SbVEeWKp02B8JiuFix-70" value="Записываем результат в массив" style="rounded=0;whiteSpace=wrap;html=1;" vertex="1" parent="1">
          <mxGeometry x="500" y="890" width="170" height="40" as="geometry" />
        </mxCell>
        <mxCell id="O2SbVEeWKp02B8JiuFix-71" value="" style="endArrow=classic;html=1;" edge="1" parent="1">
          <mxGeometry width="50" height="50" relative="1" as="geometry">
            <mxPoint x="590.0000000000001" y="780" as="sourcePoint" />
            <mxPoint x="590.0000000000001" y="810" as="targetPoint" />
          </mxGeometry>
        </mxCell>
        <mxCell id="O2SbVEeWKp02B8JiuFix-77" value="" style="endArrow=none;html=1;" edge="1" parent="1">
          <mxGeometry width="50" height="50" relative="1" as="geometry">
            <mxPoint x="430" y="1040" as="sourcePoint" />
            <mxPoint x="430" y="730" as="targetPoint" />
          </mxGeometry>
        </mxCell>
        <mxCell id="O2SbVEeWKp02B8JiuFix-78" value="" style="endArrow=none;html=1;" edge="1" parent="1">
          <mxGeometry width="50" height="50" relative="1" as="geometry">
            <mxPoint x="430" y="1040" as="sourcePoint" />
            <mxPoint x="80" y="1040" as="targetPoint" />
          </mxGeometry>
        </mxCell>
        <mxCell id="O2SbVEeWKp02B8JiuFix-79" value="" style="endArrow=none;html=1;" edge="1" parent="1">
          <mxGeometry width="50" height="50" relative="1" as="geometry">
            <mxPoint x="800" y="1080" as="sourcePoint" />
            <mxPoint x="800" y="220" as="targetPoint" />
          </mxGeometry>
        </mxCell>
      </root>
    </mxGraphModel>
  </diagram>
</mxfile>
